<svg xmlns="http://www.w3.org/2000/svg" xmlns:xlink="http://www.w3.org/1999/xlink" version="1.1" id="Layer_1" x="0px" y="0px" width="100px" height="100px" viewBox="0 0 100 100" enable-background="new 0 0 100 100" xml:space="preserve">
<g>
	<path d="M96.414,53.586l-45-45c-0.781-0.781-2.047-0.781-2.828,0l-45,45c-0.572,0.572-0.743,1.432-0.434,2.179   C3.462,56.513,4.191,57,5,57h13v33c0,1.104,0.896,2,2,2h60c1.104,0,2-0.896,2-2V57h13c0.809,0,1.538-0.487,1.848-1.235   C97.157,55.018,96.986,54.158,96.414,53.586z M50.003,82.713c-1.381,0-2.505-1.119-2.505-2.5s1.114-2.5,2.494-2.5h0.011   c1.381,0,2.5,1.119,2.5,2.5S51.384,82.713,50.003,82.713z M58.485,74.556c-0.391,0.391-0.902,0.586-1.414,0.586   s-1.023-0.195-1.414-0.586c-3.119-3.119-8.195-3.119-11.314,0c-0.781,0.781-2.047,0.781-2.828,0c-0.781-0.781-0.781-2.047,0-2.828   c4.678-4.679,12.291-4.678,16.971,0C59.267,72.509,59.267,73.775,58.485,74.556z M65.557,67.485   c-0.391,0.391-0.902,0.586-1.414,0.586s-1.023-0.195-1.414-0.586c-7.018-7.017-18.438-7.019-25.457,0   c-0.781,0.781-2.047,0.781-2.828,0s-0.781-2.047,0-2.828c8.579-8.579,22.536-8.578,31.113,0   C66.338,65.438,66.338,66.705,65.557,67.485z M72.627,60.414C72.236,60.805,71.725,61,71.213,61s-1.023-0.195-1.414-0.586   C64.511,55.125,57.479,52.213,50,52.213s-14.511,2.913-19.799,8.201c-0.781,0.781-2.047,0.781-2.828,0   c-0.781-0.781-0.781-2.047,0-2.828c6.043-6.044,14.079-9.373,22.627-9.373s16.584,3.329,22.627,9.373   C73.408,58.367,73.408,59.633,72.627,60.414z"/>
</g>
</svg>