<svg xmlns="http://www.w3.org/2000/svg" xmlns:xlink="http://www.w3.org/1999/xlink" version="1.1" id="Layer_1" x="0px" y="0px" width="100px" height="100px" viewBox="0 0 100 100" enable-background="new 0 0 100 100" xml:space="preserve">
<circle cx="18.537" cy="86.932" r="8.068"/>
<circle cx="82.369" cy="86.932" r="8.068"/>
<path d="M94.624,78.251c-0.382-4.085-0.255-8.81-5.234-18.129c-4.978-9.319-6.127-11.106-8.809-12.766  c-2.681-1.66-13.405-1.021-20.171-0.894c-6.766,0.127-19.022,0.766-22.341,2.809c-2.942,1.81-10.197,12.747-11.808,15.209  L5.387,65.484c0,0-0.026,1.032-0.044,2.545l5.455-0.203c-0.02,3-2.38,5.484-5.407,5.597c-0.017,0-0.034-0.003-0.051-0.003  c0.031,2.261,0.115,4.455,0.303,5.726c0.448,3.021,2.365,7.413,2.833,8.454c-0.015-0.221-0.024-0.442-0.024-0.667  c0-5.569,4.515-10.084,10.085-10.084s10.085,4.516,10.085,10.084c0,0.566-0.048,1.12-0.139,1.66h43.938  c-0.09-0.54-0.139-1.094-0.139-1.66c0-5.569,4.516-10.084,10.086-10.084c5.57,0,10.085,4.516,10.085,10.084c0,0.005,0,0.01,0,0.015  C92.98,85.922,94.957,81.798,94.624,78.251z M30.022,64.349c4.865-7.284,8.49-11.753,9.652-12.469  c1.636-1.006,9.303-2.137,20.794-2.354c1.107-0.021,2.301-0.056,3.565-0.091c2.069-0.059,4.196-0.116,6.257-0.13  c3.548,6.824,3.606,6.824,6.386,12.555L30.022,64.349z"/>
<path d="M62.375,25.11l3.535-3.535c-8.772-8.773-23.047-8.773-31.819,0l3.535,3.535C44.449,18.287,55.551,18.287,62.375,25.11z"/>
<path d="M55.303,32.182l3.536-3.536c-4.874-4.874-12.804-4.874-17.678,0l3.536,3.536C47.621,29.257,52.379,29.257,55.303,32.182z"/>
<path d="M50,40.484c-0.79,0-1.56-0.32-2.12-0.88c-0.56-0.55-0.88-1.33-0.88-2.12s0.32-1.56,0.88-2.12c1.11-1.12,3.13-1.12,4.24,0  c0.56,0.56,0.88,1.33,0.88,2.12s-0.32,1.56-0.88,2.12C51.56,40.164,50.79,40.484,50,40.484z"/>
<path d="M69.445,18.04l3.536-3.536c-12.671-12.672-33.291-12.672-45.962,0l3.536,3.536C41.277,7.317,58.723,7.317,69.445,18.04z"/>
</svg>