<svg xmlns="http://www.w3.org/2000/svg" xmlns:xlink="http://www.w3.org/1999/xlink" version="1.1" id="Layer_1" x="0px" y="0px" width="100px" height="100px" viewBox="0 0 100 100" enable-background="new 0 0 100 100" xml:space="preserve">
<g>
	<circle fill="none" cx="41.71" cy="65.023" r="3.158"/>
	<circle fill="none" cx="53.287" cy="65.023" r="3.158"/>
	<circle fill="none" cx="64.527" cy="65.023" r="3.158"/>
	<circle fill="none" cx="18.893" cy="65.023" r="3.158"/>
	<circle fill="none" cx="76.104" cy="65.023" r="3.158"/>
	<circle fill="none" cx="30.132" cy="65.023" r="3.158"/>
	<path fill="none" d="M76.091,47.102c0,0.156,0.284,0.156,0.284,0c0-0.078-0.064-0.142-0.143-0.142S76.091,47.024,76.091,47.102z"/>
	<path d="M88.666,35.31c0.617-0.617,0.617-1.616,0-2.232c-7.089-7.089-18.624-7.089-25.714,0c-0.616,0.617-0.616,1.616,0,2.233   c0.309,0.308,0.713,0.462,1.116,0.462c0.404,0,0.809-0.154,1.116-0.462c5.86-5.858,15.392-5.858,21.249,0   C87.051,35.926,88.05,35.926,88.666,35.31z"/>
	<path d="M94.537,27.682c-5.001-5.003-11.652-7.758-18.728-7.758c-7.074,0-13.726,2.755-18.727,7.758   c-0.617,0.616-0.617,1.616,0,2.232c0.616,0.616,1.616,0.617,2.232,0c4.406-4.406,10.264-6.833,16.494-6.833   c6.231,0,12.089,2.426,16.495,6.833c0.309,0.308,0.713,0.462,1.116,0.462c0.404,0,0.808-0.154,1.116-0.462   C95.154,29.298,95.154,28.298,94.537,27.682z"/>
	<path d="M83.188,40.706c0.616-0.616,0.616-1.616,0-2.232c-1.867-1.867-4.348-2.895-6.987-2.895s-5.121,1.028-6.987,2.895   c-0.615,0.617-0.615,1.616,0.001,2.232c0.309,0.309,0.712,0.462,1.116,0.462s0.808-0.154,1.116-0.462   c1.27-1.27,2.958-1.97,4.754-1.97c1.795,0,3.484,0.7,4.755,1.97C81.571,41.322,82.571,41.322,83.188,40.706z"/>
	<path d="M72.934,47.102c0,1.819,1.48,3.299,3.299,3.299c1.819,0,3.3-1.48,3.3-3.299s-1.48-3.299-3.3-3.299   C74.414,43.803,72.934,45.283,72.934,47.102z"/>
	<path d="M87.015,53.429H7.983C6.335,53.429,5,54.765,5,56.412v17.223c0,1.648,1.335,2.983,2.983,2.983h6.127   c-0.018,0.12-0.037,0.242-0.037,0.368v0.617c0,1.365,1.106,2.472,2.472,2.472h5.005c1.365,0,2.471-1.106,2.471-2.472v-0.617   c0-0.126-0.019-0.248-0.037-0.368h47.027c-0.018,0.12-0.037,0.242-0.037,0.368v0.617c0,1.365,1.106,2.472,2.472,2.472h5.006   c1.364,0,2.472-1.106,2.472-2.472v-0.617c0-0.126-0.02-0.248-0.037-0.368h6.128c1.647,0,2.982-1.335,2.982-2.983V56.412   C89.997,54.765,88.662,53.429,87.015,53.429z M18.893,68.181c-1.744,0-3.157-1.413-3.157-3.157c0-1.743,1.414-3.158,3.157-3.158   s3.158,1.415,3.158,3.158C22.05,66.768,20.636,68.181,18.893,68.181z M30.132,68.181c-1.744,0-3.157-1.413-3.157-3.157   c0-1.743,1.413-3.158,3.157-3.158c1.744,0,3.158,1.415,3.158,3.158C33.291,66.768,31.876,68.181,30.132,68.181z M41.71,68.181   c-1.744,0-3.157-1.413-3.157-3.157c0-1.743,1.414-3.158,3.157-3.158c1.744,0,3.158,1.415,3.158,3.158   C44.868,66.768,43.454,68.181,41.71,68.181z M53.287,68.181c-1.743,0-3.157-1.413-3.157-3.157c0-1.743,1.414-3.158,3.157-3.158   c1.744,0,3.157,1.415,3.157,3.158C56.444,66.768,55.031,68.181,53.287,68.181z M64.527,68.181c-1.744,0-3.158-1.413-3.158-3.157   c0-1.743,1.414-3.158,3.158-3.158s3.157,1.415,3.157,3.158C67.685,66.768,66.271,68.181,64.527,68.181z M76.104,68.181   c-1.744,0-3.157-1.413-3.157-3.157c0-1.743,1.413-3.158,3.157-3.158s3.157,1.415,3.157,3.158   C79.262,66.768,77.849,68.181,76.104,68.181z"/>
</g>
</svg>